<svg width="128" height="17" viewBox="0 0 128 17" fill="none" xmlns="http://www.w3.org/2000/svg">
<path d="M109.027 6.94399V16.4168H112.23V10.1016H123.942V16.4168H127.144V6.94399H109.027ZM111.864 3.87292H124.216C125.955 3.57014 127.19 2.09948 127.556 0.715332H108.524C108.89 2.09948 110.171 3.52688 111.864 3.87292ZM99.2826 16.4168C100.884 15.7679 101.753 14.6433 102.119 13.3457H87.7079V0.758587H84.4597V16.4168H99.2826ZM60.4411 3.82966H71.8785C73.617 3.35386 75.0353 2.09948 75.4013 0.758587H57.2844V10.0151H72.1073V13.2592H60.4868C58.6569 13.735 57.1014 14.9028 56.3236 16.4168H75.3098V6.94399H60.4868L60.4411 3.82966ZM32.2593 3.87292H44.6117C46.3502 3.57014 47.6312 2.09948 47.9514 0.715332H28.8738C29.2398 2.09948 30.5208 3.52688 32.2593 3.87292ZM32.2593 10.0583H44.6117C46.3502 9.75554 47.6312 8.28489 47.9514 6.90074H28.8738C29.2398 8.28489 30.5208 9.71229 32.2593 10.0583ZM32.2593 16.4168H44.6117C46.3502 16.114 47.6312 14.6433 47.9514 13.2592H28.8738C29.2398 14.6433 30.5208 16.114 32.2593 16.4168Z" fill="#E51837"/>
<path d="M0.0974121 0.758587C0.46341 2.14273 1.7444 3.52688 3.43714 3.87292H8.65261L8.92711 3.95943V16.3735H12.1753V3.95943L12.4498 3.87292H17.6653C19.4038 3.44037 20.639 2.14273 21.005 0.758587V0.715332L0.0974121 0.758587Z" fill="#E51837"/>
</svg>
